<?xml version="1.0" standalone="no"?>
<!DOCTYPE svg PUBLIC "-//W3C//DTD SVG 20010904//EN"
 "http://www.w3.org/TR/2001/REC-SVG-20010904/DTD/svg10.dtd">
<svg version="1.0" xmlns="http://www.w3.org/2000/svg"
 width="192.000000pt" height="192.000000pt" viewBox="0 0 192.000000 192.000000"
 preserveAspectRatio="xMidYMid meet">
<metadata>
Created by potrace 1.11, written by Peter Selinger 2001-2013
</metadata>
<g transform="translate(0.000000,192.000000) scale(0.100000,-0.100000)"
fill="#000000" stroke="none">
<path d="M0 960 l0 -960 960 0 960 0 0 960 0 960 -960 0 -960 0 0 -960z m834
516 c18 -7 42 -26 54 -41 20 -26 22 -39 22 -179 0 -130 -3 -155 -19 -182 -10
-17 -105 -102 -210 -190 l-191 -159 0 -77 0 -78 130 0 130 0 0 90 0 90 80 0
80 0 0 -90 0 -90 65 0 65 0 0 90 0 90 75 0 75 0 0 -90 0 -90 135 0 135 0 0 78
0 77 -195 164 c-122 102 -200 175 -209 196 -12 25 -16 66 -16 167 0 226 15
238 282 238 281 0 288 -6 288 -235 l0 -146 -77 3 -78 3 -3 113 -3 112 -124 0
-125 0 1 -97 0 -98 186 -160 c102 -88 194 -173 204 -190 16 -25 19 -51 19
-165 0 -151 -7 -173 -60 -204 -34 -21 -48 -21 -580 -21 -502 0 -548 1 -577 18
-54 29 -63 59 -63 207 0 155 5 169 88 237 33 26 120 100 195 163 l137 115 0
97 0 98 -130 0 -129 0 -3 -112 -3 -113 -77 -3 -78 -3 0 147 c0 227 6 233 288
233 134 1 192 -3 216 -13z"/>
</g>
</svg>
